<svg width="130" height="44" viewBox="0 0 130 44" fill="none" xmlns="http://www.w3.org/2000/svg">
<path d="M37.1875 17.8217C37.1875 6.14294 45.8114 0.468502 53.4953 0.468502C58.4889 0.468502 62.2903 2.2995 64.7225 5.15981L63.1851 10.3196L62.7167 10.2272C61.4376 5.77014 57.8073 1.78484 53.4113 1.78484C46.8803 1.78484 41.2022 7.27123 41.2022 17.4984C41.2022 27.0196 45.5141 33.819 52.6426 33.819C56.6122 33.819 59.0894 31.9913 60.6689 29.4114V20.6886L55.333 18.8115V18.2506H67.5841V18.8115L64.17 20.6886V29.2729C60.2845 34.2446 56.2308 35.2277 52.4294 35.2277C44.4031 35.2277 37.1905 29.2729 37.1905 17.8283L37.1875 17.8217Z" fill="white"/>
<path d="M66.4612 43.0565L67.359 38.9293C68.2568 39.8201 69.4068 40.5261 70.9022 40.5261C72.7819 40.5261 74.2743 39.2592 75.4273 36.3032L76.2801 34.0532L68.5541 12.5728L65.5663 10.9299V10.4152H75.3853V10.9299L72.3976 12.5234L78.1598 29.4543L83.7509 12.5234L80.7632 10.9299V10.4152H88.4892V10.9299L85.4144 12.5728L76.3642 37.1511C74.3583 42.5913 71.797 44 69.3618 44C68.2508 44 67.1428 43.6239 66.4582 43.0631L66.4612 43.0565Z" fill="white"/>
<path d="M86.8287 22.5592C86.8287 15.1956 91.4409 9.94347 97.6295 9.94347C99.7644 9.94347 101.686 10.6 103.479 12.7576V3.37827L100.491 2.48752V1.92337L106.98 0V32.7369L109.968 34.238V34.7526H103.479V29.032C102.242 33.0668 99.3801 35.2244 96.2632 35.2244C90.501 35.2244 86.8287 30.0646 86.8287 22.5592ZM103.476 26.3136V16.2282C102.239 12.7576 100.317 11.0223 97.7556 11.0223C93.4437 11.0223 90.6271 16.3206 90.6271 22.5592C90.6271 28.3755 93.0593 33.0173 97.2001 33.0173C100.104 33.0173 102.878 30.5298 103.476 26.3103V26.3136Z" fill="white"/>
<path d="M121.867 32.4565C125.282 32.4565 127.93 30.0647 129.38 25.9375L129.894 26.0332C128.912 31.5196 125.369 35.2244 120.63 35.2244C114.099 35.2244 110.085 29.4081 110.085 22.5592C110.085 15.7103 113.712 9.94349 120.204 9.94349C126.137 9.94349 129.638 14.1168 129.467 21.0119H113.886V21.8565C113.886 28.5636 117.685 32.4565 121.867 32.4565ZM125.753 19.8408C125.582 15.4332 123.705 11.118 120.204 11.118C116.703 11.118 114.484 15.2451 114.012 19.8408H125.753Z" fill="white"/>
<mask id="mask0_212_137" style="mask-type:luminance" maskUnits="userSpaceOnUse" x="0" y="2" width="33" height="34">
<path d="M16.2188 35.2758C25.1761 35.2758 32.4375 28.0144 32.4375 19.057C32.4375 10.0996 25.1761 2.83825 16.2188 2.83825C7.26139 2.83825 0 10.0996 0 19.057C0 28.0144 7.26139 35.2758 16.2188 35.2758Z" fill="white"/>
</mask>
<g mask="url(#mask0_212_137)">
<path d="M13.8804 20.7094L-1.33184 11.8937L-3.45837 15.5769L7.5008 21.9366L-0.882908 26.778L1.24362 30.4611L9.62685 25.6198L9.62733 38.5131H13.8804V20.7094Z" fill="#FF2727"/>
<path d="M24.4935 21.9365L35.6772 15.4629L33.5507 11.7793L18.1144 20.7083V20.7088L18.114 38.5125L22.367 38.513L22.3675 25.6196L30.7507 30.461L32.8773 26.7779L24.4935 21.9365Z" fill="#FF2727"/>
<path d="M16.0253 17.0728H16.0258L35.5667 5.80507L33.4402 2.12193L18.1519 10.9342L18.1509 1.25289L13.8979 1.25336L13.8988 10.9338L-0.173593 2.81707L-2.29964 6.50021L16.0253 17.0728Z" fill="#FF2727"/>
</g>
</svg>
